<svg width="218" height="62" viewBox="0 0 218 62" fill="none" xmlns="http://www.w3.org/2000/svg">
<path d="M0 49.6415V6.97654H5.43299V11.291C7.6701 8.30815 11.8247 6.39062 15.9261 6.39062C24.2887 6.39062 30.8402 13.2618 30.8402 22.0504C30.8402 30.8391 24.2887 37.7102 15.9261 37.7102C11.8247 37.7102 7.6701 35.7394 5.43299 32.8099V49.6415H0ZM15.1271 11.3442C9.26804 11.3442 5.00687 15.8185 5.00687 22.0504C5.00687 28.2824 9.26804 32.7566 15.1271 32.7566C20.9863 32.7566 25.2474 28.2824 25.2474 22.0504C25.2474 15.8185 20.9863 11.3442 15.1271 11.3442Z" fill="#060C14"/>
<path d="M37.5496 37.1236V6.97584H42.9825V12.1425C44.474 8.52051 48.2025 6.65625 51.2918 6.65625C52.1441 6.65625 52.8898 6.70951 53.6887 6.92257H53.7953V12.5686L53.6355 12.5154C52.73 12.1958 51.931 12.036 50.8657 12.036C45.7523 12.036 43.0358 17.1494 43.0358 22.2095V37.1769H37.5496V37.1236Z" fill="#060C14"/>
<path d="M72.6514 37.7102C64.2888 37.7102 57.7373 30.8391 57.7373 22.0504C57.7373 13.2618 64.2888 6.39062 72.6514 6.39062C76.7528 6.39062 80.9074 8.36141 83.1445 11.291V6.97654H88.5775V37.1243H83.0913V32.8099C80.8541 35.7927 76.6995 37.7102 72.6514 37.7102ZM73.3971 11.3442C67.5913 11.3442 63.2236 15.925 63.2236 22.0504C63.2236 28.1758 67.5913 32.7566 73.3971 32.7566C79.2562 32.7566 83.5174 28.2824 83.5174 22.0504C83.5174 15.8185 79.3095 11.3442 73.3971 11.3442Z" fill="#060C14"/>
<path d="M174.495 37.1243V19.4405C174.495 14.3803 172.311 11.3975 168.636 11.3975C163.682 11.3975 160.486 15.6587 160.486 22.2102V37.1776H155.053V19.4405C155.053 14.3803 152.869 11.3975 149.301 11.3975C144.4 11.3975 141.098 15.7652 141.098 22.2102V37.1776H135.665V6.97654H141.098V11.2377C142.962 8.20162 146.265 6.39062 150.046 6.39062C154.361 6.39062 157.716 8.62774 159.314 12.5693C161.019 8.73427 164.801 6.39062 169.222 6.39062C175.72 6.39062 179.928 11.1844 179.928 18.6415V37.1243H174.495Z" fill="#060C14"/>
<path d="M201.553 37.7102C193.19 37.7102 186.639 30.8391 186.639 22.0504C186.639 13.2618 193.19 6.39062 201.553 6.39062C205.654 6.39062 209.809 8.36141 212.046 11.291V6.97654H217.479V37.1243H212.046V32.8099C209.809 35.7927 205.654 37.7102 201.553 37.7102ZM202.352 11.3442C196.546 11.3442 192.178 15.925 192.178 22.0504C192.178 28.1758 196.546 32.7566 202.352 32.7566C208.211 32.7566 212.472 28.2824 212.472 22.0504C212.472 15.8185 208.211 11.3442 202.352 11.3442Z" fill="#060C14"/>
<path d="M117.607 37.6581C124.105 35.421 128.792 29.2423 128.792 22.0515C128.792 16.5653 126.129 11.7182 121.974 8.7354C122.294 8.78866 122.667 8.84192 122.986 8.84192C125.437 8.84192 127.461 6.87113 127.461 4.42096C127.461 1.97079 125.437 0 122.986 0C120.536 0 118.512 1.97079 118.512 4.42096C118.512 5.48625 118.885 6.49828 119.578 7.29725C117.34 6.17869 114.784 5.53952 112.067 5.53952C102.852 5.53952 95.3422 12.9433 95.3422 22.1048C95.3422 31.1065 102.639 38.457 111.641 38.6701C107.273 40.5344 104.184 44.8488 104.184 49.8557C104.184 56.567 109.67 62 116.435 62C123.2 62 128.686 56.567 128.686 49.8557C128.792 43.4107 123.892 38.1907 117.607 37.6581ZM100.562 21.9983C100.562 15.6598 105.729 10.5464 112.121 10.5464C118.512 10.5464 123.679 15.7131 123.679 21.9983C123.679 28.2835 118.512 33.5034 112.121 33.5034C105.729 33.5034 100.562 28.3368 100.562 21.9983ZM116.541 56.8333C112.6 56.8333 109.404 53.6375 109.404 49.7491C109.404 45.8608 112.6 42.6649 116.541 42.6649C120.483 42.6649 123.679 45.8608 123.679 49.7491C123.679 53.6907 120.483 56.8333 116.541 56.8333Z" fill="#6F2FD3"/>
</svg>
