<svg width="24" height="24" viewBox="0 0 24 24" fill="none" xmlns="http://www.w3.org/2000/svg">
<path d="M6.17 18.0005C6.3766 17.415 6.75974 16.9079 7.2666 16.5493C7.77346 16.1906 8.37909 15.998 9 15.998C9.62091 15.998 10.2265 16.1906 10.7334 16.5493C11.2403 16.9079 11.6234 17.415 11.83 18.0005H22V20.0005H11.83C11.6234 20.586 11.2403 21.0931 10.7334 21.4517C10.2265 21.8104 9.62091 22.0029 9 22.0029C8.37909 22.0029 7.77346 21.8104 7.2666 21.4517C6.75974 21.0931 6.3766 20.586 6.17 20.0005H2V18.0005H6.17ZM12.17 11.0005C12.3766 10.415 12.7597 9.90793 13.2666 9.54929C13.7735 9.19064 14.3791 8.99805 15 8.99805C15.6209 8.99805 16.2265 9.19064 16.7334 9.54929C17.2403 9.90793 17.6234 10.415 17.83 11.0005H22V13.0005H17.83C17.6234 13.586 17.2403 14.0931 16.7334 14.4517C16.2265 14.8104 15.6209 15.0029 15 15.0029C14.3791 15.0029 13.7735 14.8104 13.2666 14.4517C12.7597 14.0931 12.3766 13.586 12.17 13.0005H2V11.0005H12.17ZM6.17 4.0005C6.3766 3.41496 6.75974 2.90793 7.2666 2.54929C7.77346 2.19064 8.37909 1.99805 9 1.99805C9.62091 1.99805 10.2265 2.19064 10.7334 2.54929C11.2403 2.90793 11.6234 3.41496 11.83 4.0005H22V6.0005H11.83C11.6234 6.58603 11.2403 7.09306 10.7334 7.45171C10.2265 7.81035 9.62091 8.00295 9 8.00295C8.37909 8.00295 7.77346 7.81035 7.2666 7.45171C6.75974 7.09306 6.3766 6.58603 6.17 6.0005H2V4.0005H6.17ZM9 6.0005C9.26522 6.0005 9.51957 5.89514 9.70711 5.7076C9.89464 5.52007 10 5.26571 10 5.0005C10 4.73528 9.89464 4.48093 9.70711 4.29339C9.51957 4.10585 9.26522 4.0005 9 4.0005C8.73478 4.0005 8.48043 4.10585 8.29289 4.29339C8.10536 4.48093 8 4.73528 8 5.0005C8 5.26571 8.10536 5.52007 8.29289 5.7076C8.48043 5.89514 8.73478 6.0005 9 6.0005ZM15 13.0005C15.2652 13.0005 15.5196 12.8951 15.7071 12.7076C15.8946 12.5201 16 12.2657 16 12.0005C16 11.7353 15.8946 11.4809 15.7071 11.2934C15.5196 11.1059 15.2652 11.0005 15 11.0005C14.7348 11.0005 14.4804 11.1059 14.2929 11.2934C14.1054 11.4809 14 11.7353 14 12.0005C14 12.2657 14.1054 12.5201 14.2929 12.7076C14.4804 12.8951 14.7348 13.0005 15 13.0005ZM9 20.0005C9.26522 20.0005 9.51957 19.8951 9.70711 19.7076C9.89464 19.5201 10 19.2657 10 19.0005C10 18.7353 9.89464 18.4809 9.70711 18.2934C9.51957 18.1059 9.26522 18.0005 9 18.0005C8.73478 18.0005 8.48043 18.1059 8.29289 18.2934C8.10536 18.4809 8 18.7353 8 19.0005C8 19.2657 8.10536 19.5201 8.29289 19.7076C8.48043 19.8951 8.73478 20.0005 9 20.0005Z" fill="currentColor"/>
</svg>
