<svg width="28" height="25" viewBox="0 0 28 25" fill="none" xmlns="http://www.w3.org/2000/svg">
<path d="M6.455 20L2 23.5V5C2 4.73478 2.10536 4.48043 2.29289 4.29289C2.48043 4.10536 2.73478 4 3 4H21C21.2652 4 21.5196 4.10536 21.7071 4.29289C21.8946 4.48043 22 4.73478 22 5V19C22 19.2652 21.8946 19.5196 21.7071 19.7071C21.5196 19.8946 21.2652 20 21 20H6.455ZM5.763 18H20V6H4V19.385L5.763 18ZM11 11H13V13H11V11ZM7 11H9V13H7V11ZM15 11H17V13H15V11Z" fill="#1E2D5C"/>
<circle cx="22" cy="6" r="5" fill="#B98D14" stroke="white" stroke-width="2"/>
</svg>
