<svg width="16" height="16" viewBox="0 0 16 16" fill="none" xmlns="http://www.w3.org/2000/svg">
<path d="M8.66763 7.70833L11.0635 10.0625C11.1885 10.1875 11.251 10.3368 11.251 10.5104C11.251 10.684 11.1885 10.8333 11.0635 10.9583C10.9385 11.0833 10.7926 11.1458 10.626 11.1458C10.4593 11.1458 10.3135 11.0833 10.1885 10.9583L7.60513 8.41667C7.53568 8.34722 7.48707 8.27431 7.45929 8.19792C7.43152 8.12153 7.41763 8.04167 7.41763 7.95833V4.39583C7.41763 4.21528 7.47665 4.06597 7.59471 3.94792C7.71276 3.82986 7.86207 3.77083 8.04263 3.77083C8.22318 3.77083 8.37249 3.82986 8.49054 3.94792C8.6086 4.06597 8.66763 4.21528 8.66763 4.39583V7.70833ZM7.93846 15.5C5.99402 15.5 4.34471 14.875 2.99054 13.625C1.63638 12.375 0.827348 10.8125 0.563459 8.9375C0.535682 8.74306 0.573876 8.57639 0.678043 8.4375C0.782209 8.29861 0.931515 8.22222 1.12596 8.20833C1.29263 8.19444 1.43846 8.24653 1.56346 8.36458C1.68846 8.48264 1.76485 8.625 1.79263 8.79167C2.02874 10.3472 2.70929 11.6458 3.83429 12.6875C4.95929 13.7292 6.32735 14.25 7.93846 14.25C9.70235 14.25 11.1954 13.6319 12.4176 12.3958C13.6398 11.1597 14.251 9.65972 14.251 7.89583C14.251 6.17361 13.6329 4.71875 12.3968 3.53125C11.1607 2.34375 9.67457 1.75 7.93846 1.75C6.99402 1.75 6.1086 1.96528 5.28221 2.39583C4.45582 2.82639 3.73707 3.39583 3.12596 4.10417H4.68846C4.86901 4.10417 5.01832 4.16319 5.13638 4.28125C5.25443 4.39931 5.31346 4.54861 5.31346 4.72917C5.31346 4.90972 5.25443 5.05903 5.13638 5.17708C5.01832 5.29514 4.86901 5.35417 4.68846 5.35417H1.58429C1.40374 5.35417 1.25443 5.29514 1.13638 5.17708C1.01832 5.05903 0.959293 4.90972 0.959293 4.72917V1.64583C0.959293 1.46528 1.01832 1.31597 1.13638 1.19792C1.25443 1.07986 1.40374 1.02083 1.58429 1.02083C1.76485 1.02083 1.91415 1.07986 2.03221 1.19792C2.15027 1.31597 2.20929 1.46528 2.20929 1.64583V3.22917C2.93152 2.38194 3.78915 1.71528 4.78221 1.22917C5.77527 0.743056 6.82735 0.5 7.93846 0.5C8.98013 0.5 9.95929 0.694444 10.876 1.08333C11.7926 1.47222 12.5947 2.00347 13.2822 2.67708C13.9697 3.35069 14.5114 4.13889 14.9072 5.04167C15.303 5.94444 15.501 6.91667 15.501 7.95833C15.501 9 15.303 9.97917 14.9072 10.8958C14.5114 11.8125 13.9697 12.6111 13.2822 13.2917C12.5947 13.9722 11.7926 14.5104 10.876 14.9062C9.95929 15.3021 8.98013 15.5 7.93846 15.5Z" fill="currentColor"/>
</svg>
