<svg width="16" height="16" viewBox="0 0 16 16" fill="none" xmlns="http://www.w3.org/2000/svg">
<path d="M8.66732 7.70833L11.0632 10.0625C11.1882 10.1875 11.2507 10.3368 11.2507 10.5104C11.2507 10.684 11.1882 10.8333 11.0632 10.9583C10.9382 11.0833 10.7923 11.1458 10.6257 11.1458C10.459 11.1458 10.3132 11.0833 10.1882 10.9583L7.60482 8.41667C7.53537 8.34722 7.48676 8.27431 7.45898 8.19792C7.43121 8.12153 7.41732 8.04167 7.41732 7.95833V4.39583C7.41732 4.21528 7.47634 4.06597 7.5944 3.94792C7.71246 3.82986 7.86176 3.77083 8.04232 3.77083C8.22287 3.77083 8.37218 3.82986 8.49023 3.94792C8.60829 4.06597 8.66732 4.21528 8.66732 4.39583V7.70833ZM8.08398 15.5C7.04232 15.5 6.06315 15.3021 5.14648 14.9062C4.22982 14.5104 3.42773 13.9722 2.74023 13.2917C2.05273 12.6111 1.51107 11.8125 1.11523 10.8958C0.719401 9.97917 0.521484 9 0.521484 7.95833C0.521484 6.91667 0.719401 5.94444 1.11523 5.04167C1.51107 4.13889 2.05273 3.35069 2.74023 2.67708C3.42773 2.00347 4.22982 1.47222 5.14648 1.08333C6.06315 0.694444 7.04232 0.5 8.08398 0.5C9.1951 0.5 10.2472 0.743056 11.2402 1.22917C12.2333 1.71528 13.0909 2.38194 13.8132 3.22917V1.64583C13.8132 1.46528 13.8722 1.31597 13.9902 1.19792C14.1083 1.07986 14.2576 1.02083 14.4382 1.02083C14.6187 1.02083 14.768 1.07986 14.8861 1.19792C15.0041 1.31597 15.0632 1.46528 15.0632 1.64583V4.72917C15.0632 4.90972 15.0041 5.05903 14.8861 5.17708C14.768 5.29514 14.6187 5.35417 14.4382 5.35417H11.334C11.1534 5.35417 11.0041 5.29514 10.8861 5.17708C10.768 5.05903 10.709 4.90972 10.709 4.72917C10.709 4.54861 10.768 4.39931 10.8861 4.28125C11.0041 4.16319 11.1534 4.10417 11.334 4.10417H12.8965C12.2854 3.39583 11.5666 2.82639 10.7402 2.39583C9.91385 1.96528 9.02843 1.75 8.08398 1.75C6.34787 1.75 4.86176 2.34375 3.62565 3.53125C2.38954 4.71875 1.77148 6.17361 1.77148 7.89583C1.77148 9.65972 2.3826 11.1597 3.60482 12.3958C4.82704 13.6319 6.3201 14.25 8.08398 14.25C9.6951 14.25 11.0632 13.7292 12.1882 12.6875C13.3132 11.6458 13.9937 10.3472 14.2298 8.79167C14.2576 8.625 14.334 8.48264 14.459 8.36458C14.584 8.24653 14.7298 8.19444 14.8965 8.20833C15.0909 8.22222 15.2402 8.29861 15.3444 8.4375C15.4486 8.57639 15.4868 8.74306 15.459 8.9375C15.1951 10.8125 14.3861 12.375 13.0319 13.625C11.6777 14.875 10.0284 15.5 8.08398 15.5Z" fill="currentColor"/>
</svg>
