<svg width="24" height="24" viewBox="0 0 24 24" fill="none" xmlns="http://www.w3.org/2000/svg">
<path fill-rule="evenodd" clip-rule="evenodd" d="M3.43523 2.06074L3.21148 2.11496L3.00663 2.21879L2.80175 2.32262L2.56156 2.56277L2.3214 2.80297L2.21839 3.00621L2.11542 3.20945L2.05769 3.45434L1.99995 3.69922V12V20.3008L2.05769 20.5457L2.11542 20.7905L2.21839 20.9938L2.3214 21.197L2.56156 21.4372L2.80175 21.6774L3.00499 21.7804L3.20824 21.8834L3.45312 21.9411L3.698 21.9988L5.97437 21.9994L8.25077 22L8.23999 21.3848L8.22925 20.7695L5.93714 20.75L3.64507 20.7305L3.53722 20.6499L3.42941 20.5694L3.34886 20.4615L3.26831 20.3536V12V3.64637L3.34886 3.53848L3.42941 3.43062L3.53726 3.35008L3.64511 3.26953H8.43718H13.2293L13.2488 4.65625L13.2683 6.04297L13.3707 6.26117L13.473 6.47941L13.6212 6.62762L13.7694 6.77578L13.9876 6.87812L14.2058 6.98047L15.5925 7L16.9793 7.01953L16.9988 7.9375L17.0183 8.85547H17.6238H18.2293L18.2405 7.60547L18.2518 6.35547L18.2281 6.21875L18.2044 6.08203L16.2246 4.09691L14.2449 2.11184L14.1394 2.0559L14.0339 2L8.84644 2.00324L3.65894 2.00652L3.43523 2.06074ZM6.74292 12.054L6.62382 12.1068L6.51988 12.2304L6.41597 12.3539L6.39324 12.4796L6.37046 12.6055L6.38191 15.2296L6.39331 17.8537L6.47386 17.9615L6.55441 18.0694L6.6623 18.1499L6.77019 18.2305H8.28097H9.79175L10.01 18.1281L10.2282 18.0258L10.3764 17.8776L10.5246 17.7294L10.6269 17.5112L10.7293 17.293V15.125V12.957L10.6269 12.7388L10.5246 12.5206L10.3764 12.3724L10.2282 12.2242L10.01 12.1219L9.79175 12.0195L8.32691 12.0104L6.86206 12.0012L6.74292 12.054ZM13.331 12.0604L13.0811 12.1146L12.745 12.2805L12.4089 12.4464L12.1146 12.7408L11.8202 13.0352L11.6551 13.3697L11.4899 13.7043L11.4325 13.9752L11.3752 14.2461V15.125V16.0039L11.4325 16.2748L11.4899 16.5457L11.6551 16.8803L11.8202 17.2148L12.1146 17.5092L12.4089 17.8036L12.7435 17.9687L13.078 18.1339L13.3489 18.1912L13.6199 18.2486H13.8738H14.1277L14.3986 18.1912L14.6695 18.1339L15.0041 17.9687L15.3386 17.8036L15.633 17.5092L15.9274 17.2148L16.0925 16.8803L16.2577 16.5457L16.315 16.2748L16.3724 16.0039V15.125V14.2461L16.315 13.9752L16.2577 13.7043L16.0925 13.3697L15.9274 13.0352L15.633 12.7408L15.3386 12.4464L15.0041 12.2813L14.6695 12.1161L14.3986 12.0588L14.1277 12.0014L13.8543 12.0038L13.5808 12.0062L13.331 12.0604ZM18.956 12.0604L18.7061 12.1146L18.37 12.2805L18.0339 12.4464L17.7396 12.7408L17.4452 13.0352L17.2801 13.3697L17.1149 13.7043L17.0575 13.9752L17.0002 14.2461V15.125V16.0039L17.0575 16.2748L17.1149 16.5457L17.2801 16.8803L17.4452 17.2148L17.7396 17.5092L18.0339 17.8036L18.3685 17.9687L18.703 18.1339L18.9739 18.1912L19.2449 18.2486H19.4988H19.7527L20.0236 18.1912L20.2945 18.1339L20.6291 17.9687L20.9636 17.8036L21.258 17.5092L21.5524 17.2148L21.7157 16.8828L21.8789 16.5508L21.9383 16.2969L21.9976 16.043L21.9982 15.8955L21.9988 15.748L21.3875 15.7588L20.7762 15.7695L20.7111 16.0039L20.646 16.2383L20.5795 16.3646L20.513 16.4909L20.3706 16.6334L20.2282 16.7758L20.01 16.8779L19.7918 16.98H19.4988H19.2058L18.9876 16.8779L18.7694 16.7758L18.6212 16.6276L18.473 16.4794L18.3707 16.2612L18.2683 16.043V15.125V14.207L18.3707 13.9888L18.473 13.7706L18.6212 13.6224L18.7694 13.4742L18.9876 13.3721L19.2058 13.27H19.4988H19.7918L20.01 13.3721L20.2282 13.4742L20.3706 13.6166L20.513 13.7591L20.5795 13.8854L20.646 14.0117L20.7111 14.2461L20.7762 14.4805L21.3875 14.4912L21.9988 14.502L21.9982 14.3545L21.9976 14.207L21.9383 13.9531L21.8789 13.6992L21.7157 13.3672L21.5524 13.0352L21.258 12.7408L20.9636 12.4464L20.6291 12.2813L20.2945 12.1161L20.0236 12.0588L19.7527 12.0014L19.4793 12.0038L19.2058 12.0062L18.956 12.0604ZM9.47925 15.125V16.9805H8.56128H7.64331L7.63312 15.1641L7.62296 13.3477L7.64195 13.2981L7.66093 13.2486L8.57011 13.2591L9.47925 13.2695V15.125ZM14.3904 13.3768L14.6032 13.4742L14.7514 13.6224L14.8996 13.7706L15.0019 13.9888L15.1043 14.207V15.125V16.043L15.0019 16.2612L14.8996 16.4794L14.7514 16.6276L14.6032 16.7758L14.385 16.8779L14.1668 16.98H13.8738H13.5808L13.3626 16.8779L13.1444 16.7758L12.9962 16.6276L12.848 16.4794L12.7457 16.2612L12.6433 16.043L12.6308 15.2129L12.6182 14.3829L12.6781 14.177L12.7379 13.9711L12.8569 13.7914L12.9759 13.6118L13.1339 13.5023L13.2918 13.3929L13.4949 13.3204L13.698 13.2478L13.9378 13.2636L14.1776 13.2794L14.3904 13.3768Z" fill="currentColor"/>
</svg>
