<svg width="24" height="24" viewBox="0 0 24 24" fill="none" xmlns="http://www.w3.org/2000/svg">
<path d="M17.882 19.2966C16.1232 20.4121 14.0828 21.0029 12 20.9996C6.60803 20.9996 2.12203 17.1196 1.18103 11.9996C1.61106 9.6703 2.78266 7.54247 4.52103 5.93358L1.39203 2.80758L2.80703 1.39258L22.606 21.1926L21.191 22.6066L17.881 19.2966H17.882ZM5.93503 7.34958C4.57603 8.58517 3.62935 10.2084 3.22303 11.9996C3.53532 13.366 4.16229 14.6407 5.05403 15.7222C5.94577 16.8036 7.07766 17.662 8.35958 18.2289C9.64151 18.7958 11.0381 19.0556 12.4381 18.9877C13.8382 18.9198 15.203 18.5259 16.424 17.8376L14.396 15.8096C13.5327 16.3534 12.5102 16.5877 11.4963 16.474C10.4823 16.3604 9.53707 15.9055 8.8156 15.184C8.09413 14.4625 7.63926 13.5173 7.52559 12.5033C7.41193 11.4894 7.64621 10.4669 8.19003 9.60358L5.93503 7.34958ZM12.914 14.3276L9.67203 11.0856C9.4941 11.5385 9.45222 12.0335 9.55154 12.5099C9.65085 12.9863 9.88705 13.4234 10.2311 13.7675C10.5752 14.1116 11.0123 14.3478 11.4887 14.4471C11.9651 14.5464 12.4601 14.5045 12.913 14.3266L12.914 14.3276ZM20.807 16.5916L19.376 15.1616C20.0445 14.2089 20.5204 13.1348 20.777 11.9996C20.5053 10.8093 19.9943 9.68672 19.2752 8.70007C18.5561 7.71342 17.6438 6.88331 16.5939 6.26018C15.544 5.63706 14.3783 5.23395 13.1678 5.07534C11.9572 4.91674 10.727 5.00596 9.55203 5.33758L7.97403 3.75958C9.22103 3.26958 10.58 2.99958 12 2.99958C17.392 2.99958 21.878 6.87958 22.819 11.9996C22.5126 13.6653 21.8239 15.2372 20.807 16.5916V16.5916ZM11.723 7.50758C12.3595 7.46824 12.9971 7.56464 13.5936 7.7904C14.19 8.01615 14.7316 8.36609 15.1826 8.81703C15.6335 9.26797 15.9835 9.8096 16.2092 10.406C16.435 11.0025 16.5314 11.6401 16.492 12.2766L11.722 7.50758H11.723Z" fill="currentColor"/>
</svg>
