<svg xmlns="http://www.w3.org/2000/svg" width="32" height="33" viewBox="0 0 32 33" fill="none">
  <path xmlns="http://www.w3.org/2000/svg" d="M16.5533 7.16667H28.0013C28.3549 7.16667 28.6941 7.30714 28.9441 7.55719C29.1942 7.80724 29.3346 8.14638 29.3346 8.5V27.1667C29.3346 27.5203 29.1942 27.8594 28.9441 28.1095C28.6941 28.3595 28.3549 28.5 28.0013 28.5H4.0013C3.64768 28.5 3.30854 28.3595 3.05849 28.1095C2.80844 27.8594 2.66797 27.5203 2.66797 27.1667V5.83333C2.66797 5.47971 2.80844 5.14057 3.05849 4.89052C3.30854 4.64048 3.64768 4.5 4.0013 4.5H13.8866L16.5533 7.16667ZM26.668 15.1667H5.33464V25.8333H26.668V15.1667ZM26.668 12.5V9.83333H15.4493L12.7826 7.16667H5.33464V12.5H26.668Z" fill="currentColor"/>
</svg>
