<svg width="19" height="22" viewBox="0 0 19 22" fill="none" xmlns="http://www.w3.org/2000/svg">
<path d="M8 13.3711V15.3711C4.68629 15.3711 2 18.0574 2 21.3711H0C0 16.9528 3.58172 13.3711 8 13.3711ZM8 12.3711C4.685 12.3711 2 9.68609 2 6.37109C2 3.05609 4.685 0.371094 8 0.371094C11.315 0.371094 14 3.05609 14 6.37109C14 9.68609 11.315 12.3711 8 12.3711ZM8 10.3711C10.21 10.3711 12 8.58109 12 6.37109C12 4.16109 10.21 2.37109 8 2.37109C5.79 2.37109 4 4.16109 4 6.37109C4 8.58109 5.79 10.3711 8 10.3711ZM10.5946 18.1826C10.5327 17.9222 10.5 17.6505 10.5 17.3711C10.5 17.0918 10.5327 16.8201 10.5945 16.5597L9.6029 15.9872L10.6029 14.2551L11.5952 14.828C11.9883 14.4562 12.4676 14.1745 13 14.016V12.8711H15V14.016C15.5324 14.1745 16.0116 14.4562 16.4047 14.828L17.3971 14.255L18.3972 15.9871L17.4055 16.5596C17.4673 16.8201 17.5 17.0918 17.5 17.3711C17.5 17.6504 17.4673 17.9221 17.4055 18.1825L18.3972 18.755L17.3972 20.4871L16.4048 19.9141C16.0117 20.286 15.5325 20.5677 15.0001 20.7261V21.8711H13.0001V20.7262C12.4677 20.5678 11.9884 20.2861 11.5953 19.9142L10.603 20.4872L9.6029 18.7551L10.5946 18.1826ZM14 18.8711C14.8284 18.8711 15.5 18.1995 15.5 17.3711C15.5 16.5427 14.8284 15.8711 14 15.8711C13.1716 15.8711 12.5 16.5427 12.5 17.3711C12.5 18.1995 13.1716 18.8711 14 18.8711Z" fill="currentColor"/>
</svg>
