<svg width="24" height="24" viewBox="0 0 24 24" fill="none" xmlns="http://www.w3.org/2000/svg">
<path fill-rule="evenodd" clip-rule="evenodd" d="M3.43537 2.06074L3.21162 2.11496L3.00678 2.21879L2.80189 2.32262L2.5617 2.56277L2.32154 2.80297L2.21853 3.00621L2.11557 3.20945L2.05783 3.45434L2.0001 3.69922V12V20.3008L2.05783 20.5457L2.11557 20.7905L2.21853 20.9938L2.32154 21.197L2.5617 21.4372L2.80189 21.6774L3.00514 21.7804L3.20838 21.8834L3.45326 21.9411L3.69814 21.9988L5.97451 21.9994L8.25092 22L8.24014 21.3848L8.22939 20.7695L5.93728 20.75L3.64521 20.7305L3.53736 20.6499L3.42955 20.5694L3.349 20.4615L3.26846 20.3536V12V3.64637L3.349 3.53848L3.42955 3.43062L3.5374 3.35008L3.64525 3.26953H8.43732H13.2294L13.2489 4.65625L13.2685 6.04297L13.3708 6.26117L13.4731 6.47941L13.6213 6.62762L13.7695 6.77578L13.9878 6.87812L14.206 6.98047L15.5927 7L16.9794 7.01953L16.9989 7.9375L17.0185 8.85547H17.6239H18.2294L18.2407 7.60547L18.252 6.35547L18.2282 6.21875L18.2045 6.08203L16.2247 4.09691L14.245 2.11184L14.1395 2.0559L14.034 2L8.84658 2.00324L3.65908 2.00652L3.43537 2.06074ZM8.61806 12.054L8.49896 12.1068L8.39502 12.2304L8.29111 12.3539L8.26865 12.4796L8.24619 12.6055L8.25732 15.418L8.26846 18.2305H8.87392H9.47939L9.49892 17.3125L9.51846 16.3945L10.5927 16.375L11.6669 16.3555L11.8851 16.2531L12.1033 16.1508L12.2515 16.0026L12.3997 15.8544L12.502 15.6362L12.6044 15.418V14.1875V12.957L12.502 12.7388L12.3997 12.5206L12.2515 12.3724L12.1033 12.2242L11.8851 12.1219L11.6669 12.0195L10.202 12.0104L8.73721 12.0012L8.61806 12.054ZM13.6181 12.054L13.499 12.1068L13.395 12.2304L13.2911 12.3539L13.2684 12.4796L13.2456 12.6055L13.257 15.2296L13.2685 17.8537L13.349 17.9615L13.4295 18.0694L13.5374 18.1499L13.6453 18.2305H15.1561H16.6669L16.8851 18.1281L17.1033 18.0258L17.2515 17.8776L17.3997 17.7294L17.502 17.5112L17.6044 17.293V15.125V12.957L17.502 12.7388L17.3997 12.5206L17.2515 12.3724L17.1033 12.2242L16.8851 12.1219L16.6669 12.0195L15.202 12.0104L13.7372 12.0012L13.6181 12.054ZM18.6181 12.055L18.499 12.1068L18.395 12.2304L18.2911 12.3539L18.2687 12.4796L18.2462 12.6055L18.2573 15.418L18.2685 18.2305H18.8739H19.4794L19.4989 17L19.5185 15.7695L20.7587 15.7592L21.9989 15.7489V15.125V14.5011L20.7587 14.4908L19.5185 14.4805V13.875V13.2695L20.7587 13.2592L21.9989 13.2489V12.6245V12L20.3681 12.0015L18.7372 12.003L18.6181 12.055ZM11.3544 14.1875V15.1055H10.4364H9.51846L9.50791 14.2275L9.4974 13.3494L9.51674 13.299L9.53607 13.2486L10.4453 13.2591L11.3544 13.2695V14.1875ZM16.3544 15.125V16.9805H15.4364H14.5185L14.5083 15.1641L14.4981 13.3477L14.5171 13.2981L14.5361 13.2486L15.4453 13.2591L16.3544 13.2695V15.125Z" fill="currentColor"/>
</svg>
