<svg width="19" height="23" viewBox="0 0 19 23" fill="none" xmlns="http://www.w3.org/2000/svg">
<path d="M10 13.7793V15.8693C9.09492 15.5493 8.12628 15.4512 7.1754 15.5831C6.22453 15.7151 5.3192 16.0732 4.53543 16.6276C3.75166 17.1819 3.11234 17.9162 2.67116 18.7688C2.22998 19.6214 1.99982 20.5674 2 21.5273L2.58457e-07 21.5263C-0.000310114 20.3052 0.278921 19.1003 0.816299 18.0037C1.35368 16.9072 2.13494 15.9483 3.10022 15.2004C4.0655 14.4525 5.18918 13.9355 6.38515 13.689C7.58113 13.4425 8.81766 13.4731 10 13.7783V13.7793ZM8 12.5273C4.685 12.5273 2 9.84234 2 6.52734C2 3.21234 4.685 0.527344 8 0.527344C11.315 0.527344 14 3.21234 14 6.52734C14 9.84234 11.315 12.5273 8 12.5273ZM8 10.5273C10.21 10.5273 12 8.73734 12 6.52734C12 4.31734 10.21 2.52734 8 2.52734C5.79 2.52734 4 4.31734 4 6.52734C4 8.73734 5.79 10.5273 8 10.5273ZM15 17.1133L17.121 14.9913L18.536 16.4063L16.414 18.5273L18.536 20.6483L17.121 22.0633L15 19.9413L12.879 22.0633L11.464 20.6483L13.586 18.5273L11.464 16.4063L12.879 14.9913L15 17.1133Z" fill="currentColor"/>
</svg>
