<svg width="24" height="24" viewBox="0 0 24 24" fill="none" xmlns="http://www.w3.org/2000/svg">
<path d="M8.68601 3.9994L11.293 1.3924C11.4805 1.20492 11.7348 1.09961 12 1.09961C12.2652 1.09961 12.5195 1.20492 12.707 1.3924L15.314 3.9994H19C19.2652 3.9994 19.5196 4.10475 19.7071 4.29229C19.8946 4.47983 20 4.73418 20 4.9994V8.6854L22.607 11.2924C22.7945 11.4799 22.8998 11.7342 22.8998 11.9994C22.8998 12.2646 22.7945 12.5189 22.607 12.7064L20 15.3134V18.9994C20 19.2646 19.8946 19.519 19.7071 19.7065C19.5196 19.894 19.2652 19.9994 19 19.9994H15.314L12.707 22.6064C12.5195 22.7939 12.2652 22.8992 12 22.8992C11.7348 22.8992 11.4805 22.7939 11.293 22.6064L8.68601 19.9994H5.00001C4.73479 19.9994 4.48044 19.894 4.2929 19.7065C4.10536 19.519 4.00001 19.2646 4.00001 18.9994V15.3134L1.39301 12.7064C1.20554 12.5189 1.10022 12.2646 1.10022 11.9994C1.10022 11.7342 1.20554 11.4799 1.39301 11.2924L4.00001 8.6854V4.9994C4.00001 4.73418 4.10536 4.47983 4.2929 4.29229C4.48044 4.10475 4.73479 3.9994 5.00001 3.9994H8.68601ZM6.00001 5.9994V9.5144L3.51501 11.9994L6.00001 14.4844V17.9994H9.51501L12 20.4844L14.485 17.9994H18V14.4844L20.485 11.9994L18 9.5144V5.9994H14.485L12 3.5144L9.51501 5.9994H6.00001ZM12 15.9994C10.9391 15.9994 9.92173 15.578 9.17158 14.8278C8.42143 14.0777 8.00001 13.0603 8.00001 11.9994C8.00001 10.9385 8.42143 9.92111 9.17158 9.17097C9.92173 8.42082 10.9391 7.9994 12 7.9994C13.0609 7.9994 14.0783 8.42082 14.8284 9.17097C15.5786 9.92111 16 10.9385 16 11.9994C16 13.0603 15.5786 14.0777 14.8284 14.8278C14.0783 15.578 13.0609 15.9994 12 15.9994ZM12 13.9994C12.5304 13.9994 13.0391 13.7887 13.4142 13.4136C13.7893 13.0385 14 12.5298 14 11.9994C14 11.469 13.7893 10.9603 13.4142 10.5852C13.0391 10.2101 12.5304 9.9994 12 9.9994C11.4696 9.9994 10.9609 10.2101 10.5858 10.5852C10.2107 10.9603 10 11.469 10 11.9994C10 12.5298 10.2107 13.0385 10.5858 13.4136C10.9609 13.7887 11.4696 13.9994 12 13.9994Z" fill="currentColor"/>
</svg>
