<svg width="24" height="24" viewBox="0 0 24 24" fill="none" xmlns="http://www.w3.org/2000/svg">
<path d="M17.849 11.8071L17.142 11.1001L7.242 21.0001H3V16.7571L14.313 5.44305L19.97 11.1001C20.1575 11.2876 20.2628 11.5419 20.2628 11.8071C20.2628 12.0722 20.1575 12.3265 19.97 12.5141L12.9 19.5851L11.485 18.1711L17.849 11.8071ZM15.728 9.68605L14.313 8.27205L5 17.5851V19.0001H6.414L15.728 9.68605ZM18.556 2.61505L21.385 5.44305C21.5725 5.63058 21.6778 5.88489 21.6778 6.15005C21.6778 6.41522 21.5725 6.66952 21.385 6.85705L19.97 8.27205L15.728 4.02905L17.142 2.61505C17.3295 2.42758 17.5838 2.32227 17.849 2.32227C18.1142 2.32227 18.3685 2.42758 18.556 2.61505Z" fill="currentColor"/>
</svg>
