<svg width="24" height="24" viewBox="0 0 24 24" fill="none" xmlns="http://www.w3.org/2000/svg">
  <path xmlns="http://www.w3.org/2000/svg" d="M12.866 2.99999L22.392 19.5C22.4798 19.652 22.526 19.8244 22.526 20C22.526 20.1755 22.4798 20.348 22.392 20.5C22.3042 20.652 22.178 20.7782 22.026 20.866C21.874 20.9538 21.7015 21 21.526 21H2.474C2.29847 21 2.12603 20.9538 1.97401 20.866C1.822 20.7782 1.69576 20.652 1.608 20.5C1.52023 20.348 1.47403 20.1755 1.47403 20C1.47403 19.8244 1.52024 19.652 1.608 19.5L11.134 2.99999C11.2218 2.84798 11.348 2.72175 11.5 2.63399C11.652 2.54623 11.8245 2.50003 12 2.50003C12.1755 2.50003 12.348 2.54623 12.5 2.63399C12.652 2.72175 12.7782 2.84798 12.866 2.99999ZM11 16V18H13V16H11ZM11 8.99999V14H13V8.99999H11Z" fill="currentColor"/>
</svg>
