<svg width="24" height="24" viewBox="0 0 24 24" fill="none" xmlns="http://www.w3.org/2000/svg">
<path fill-rule="evenodd" clip-rule="evenodd" d="M3.43257 2.06074L3.20925 2.11496L3.00481 2.21879L2.80033 2.32262L2.5606 2.56277L2.32091 2.80297L2.2181 3.00621L2.11534 3.20945L2.05771 3.45434L2.00009 3.69922V12V20.3008L2.05771 20.5457L2.11534 20.7905L2.2181 20.9938L2.32091 21.197L2.5606 21.4372L2.80033 21.6774L3.00317 21.7804L3.20602 21.8834L3.45042 21.9411L3.69483 21.9988L5.96676 21.9994L8.23873 22L8.22797 21.3848L8.21725 20.7695L5.9296 20.75L3.642 20.7305L3.53436 20.6499L3.42676 20.5694L3.34637 20.4615L3.26598 20.3536V12V3.64637L3.34637 3.53848L3.42676 3.43063L3.5344 3.35008L3.64204 3.26953H8.42477H13.2075L13.227 4.65625L13.2465 6.04297L13.3486 6.26117L13.4508 6.47941L13.5986 6.62762L13.7466 6.77578L13.9644 6.87812L14.1822 6.98047L15.5662 7L16.9502 7.01953L16.9697 7.9375L16.9892 8.85547H17.5935H18.1978L18.209 7.60547L18.2203 6.35547L18.1966 6.21875L18.1729 6.08203L16.197 4.09691L14.2211 2.11184L14.1159 2.0559L14.0106 2L8.83323 2.00324L3.65584 2.00652L3.43257 2.06074ZM7.00633 12.0506L6.98695 12.1013L6.99779 12.6659L7.00867 13.2305L7.39635 13.2418L7.78403 13.253L7.83873 13.2985L7.89346 13.344L8.31849 14.1951L8.74356 15.0462V15.125V15.2038L8.31849 16.0549L7.89346 16.906L7.83873 16.9515L7.78403 16.997L7.39635 17.0082L7.00867 17.0195V17.625V18.2305L7.68095 18.2412L8.35319 18.2518L8.5114 18.171L8.6696 18.0901L8.77483 17.9216L8.88001 17.7532L9.15179 17.2008L9.4236 16.6484H9.4843H9.545L9.81682 17.2008L10.0886 17.7532L10.1938 17.9216L10.299 18.0901L10.4572 18.171L10.6154 18.2518L11.2877 18.2412L11.9599 18.2305V17.625V17.0195L11.5723 17.0082L11.1846 16.997L11.1299 16.9515L11.0751 16.906L10.6501 16.0549L10.225 15.2038V15.125V15.0462L10.6501 14.1951L11.0751 13.344L11.1299 13.2985L11.1846 13.253L11.5723 13.2418L11.9599 13.2305V12.625V12.0195L11.2877 12.0088L10.6154 11.9982L10.4572 12.079L10.299 12.1599L10.1938 12.3284L10.0886 12.4968L9.81682 13.0492L9.545 13.6016H9.4843H9.4236L9.15179 13.0492L8.88001 12.4968L8.77483 12.3284L8.6696 12.1599L8.51319 12.08L8.35682 12H7.69124H7.02571L7.00633 12.0506ZM12.6211 12.0486L12.6017 12.0993L12.6122 14.9765L12.6227 17.8537L12.7031 17.9615L12.7835 18.0694L12.8911 18.1499L12.9987 18.2305H14.6626H16.3264V17.625V17.0195L15.0983 17L13.8703 16.9805L13.8508 14.5L13.8313 12.0195L13.2359 12.0087L12.6405 11.998L12.6211 12.0486ZM18.4279 12.058L18.1901 12.1098L17.9806 12.2163L17.7711 12.3226L17.5257 12.5685L17.2802 12.8144L17.1654 13.0615L17.0506 13.3086L17.0044 13.5918L16.9583 13.875L17.0044 14.1582L17.0506 14.4414L17.1654 14.6885L17.2802 14.9356L17.5257 15.1815L17.7711 15.4274L17.9649 15.5257L18.1588 15.624L18.3147 15.6723L18.4707 15.7207L19.3939 15.7451L20.317 15.7695L20.4246 15.8501L20.5321 15.9306L20.6125 16.0385L20.6929 16.1464V16.375V16.6036L20.6125 16.7115L20.5321 16.8194L20.4246 16.8999L20.3171 16.9805L19.5498 16.993L18.7825 17.0056L18.6445 16.9646L18.5064 16.9236L18.4017 16.8142L18.2971 16.7047L18.2435 16.5496L18.19 16.3945L17.5985 16.3837L17.007 16.373L16.9865 16.4264L16.9661 16.4798L17.0233 16.7546L17.0804 17.0294L17.1861 17.2382L17.2917 17.447L17.5314 17.6872L17.7711 17.9274L17.9793 18.0331L18.1875 18.1388L18.4461 18.1937L18.7046 18.2486H19.4648H20.225L20.4836 18.1937L20.7421 18.1388L20.9503 18.0331L21.1585 17.9274L21.404 17.6815L21.6494 17.4356L21.7644 17.1885L21.8795 16.9414L21.9277 16.6582L21.9758 16.375L21.9277 16.0918L21.8795 15.8086L21.7644 15.5615L21.6494 15.3144L21.404 15.0685L21.1585 14.8226L20.9647 14.7243L20.7709 14.626L20.6149 14.5777L20.459 14.5293L19.5358 14.5049L18.6126 14.4805L18.505 14.3999L18.3975 14.3194L18.3171 14.2115L18.2367 14.1036V13.875V13.6464L18.3171 13.5385L18.3975 13.4306L18.505 13.3501L18.6126 13.2695L19.3798 13.257L20.1471 13.2444L20.2852 13.2854L20.4232 13.3264L20.5279 13.4358L20.6325 13.5453L20.6861 13.7004L20.7396 13.8555L21.3498 13.8662L21.9599 13.877L21.9594 13.7881L21.9588 13.6992L21.9011 13.4543L21.8435 13.2095L21.7408 13.0062L21.6379 12.803L21.3983 12.5628L21.1585 12.3226L20.9503 12.2169L20.7421 12.1112L20.4836 12.0563L20.225 12.0014L19.4453 12.0038L18.6656 12.0062L18.4279 12.058Z" fill="currentColor"/>
</svg>
